<svg width="102" height="26" viewBox="0 0 102 26" fill="none" xmlns="http://www.w3.org/2000/svg">
<path d="M2.2187 22.2179L23.1572 13.0987L2.11632 4.2182L2.14614 11.2181L17.1573 13.1328L2.16889 15.2181L2.2187 22.2179Z" fill="white"/>
<path d="M38.1367 19.2293C37.1287 19.235 36.162 19.1085 35.2365 18.8498C34.311 18.579 33.565 18.2293 32.9985 17.8005L33.976 15.5989C34.5182 15.9798 35.156 16.2942 35.8894 16.542C36.6348 16.7778 37.3854 16.8935 38.1414 16.8892C38.7174 16.8859 39.1791 16.8293 39.5265 16.7193C39.8858 16.5973 40.1489 16.4338 40.3157 16.2288C40.4825 16.0239 40.5652 15.7894 40.5637 15.5254C40.5618 15.1894 40.4283 14.9262 40.1632 14.7357C39.898 14.5332 39.5491 14.3732 39.1165 14.2556C38.6837 14.1261 38.203 14.0088 37.6744 13.9038C37.1578 13.7868 36.6349 13.6457 36.106 13.4807C35.5891 13.3157 35.1138 13.1024 34.6803 12.8408C34.2468 12.5793 33.8909 12.2333 33.6124 11.8029C33.346 11.3724 33.2108 10.8212 33.207 10.1492C33.2029 9.42918 33.3912 8.7741 33.7718 8.18392C34.1644 7.58168 34.7497 7.10434 35.5277 6.75191C36.3177 6.38741 37.3066 6.20178 38.4946 6.19503C39.2866 6.19052 40.0671 6.28208 40.8362 6.46971C41.6052 6.64534 42.2848 6.91748 42.8749 7.28613L41.9875 9.50521C41.3976 9.17256 40.8082 8.92991 40.2193 8.77726C39.6304 8.61261 39.0539 8.53188 38.4899 8.53509C37.9259 8.5383 37.4643 8.60693 37.1051 8.74097C36.7458 8.87502 36.4888 9.05048 36.334 9.26737C36.1792 9.47225 36.1026 9.71269 36.1041 9.98868C36.106 10.3127 36.2395 10.5759 36.5046 10.7784C36.7697 10.9689 37.1186 11.1229 37.5513 11.2405C37.984 11.358 38.4586 11.4753 38.9753 11.5924C39.504 11.7094 40.0268 11.8444 40.5436 11.9975C41.0725 12.1505 41.5537 12.3577 41.9872 12.6193C42.4207 12.8808 42.7707 13.2268 43.0371 13.6573C43.3156 14.0877 43.4567 14.6329 43.4604 15.2929C43.4645 16.0009 43.2701 16.65 42.8775 17.2403C42.4848 17.8305 41.8936 18.3079 41.1036 18.6724C40.3257 19.0368 39.3367 19.2224 38.1367 19.2293ZM49.3627 19.0934C48.5587 19.098 47.8378 18.9461 47.2 18.6377C46.5743 18.3293 46.0856 17.858 45.734 17.224C45.3823 16.578 45.2036 15.757 45.1979 14.761L45.1668 9.28913L47.9748 9.27316L48.0035 14.3311C48.0081 15.1351 48.1795 15.7281 48.5177 16.1102C48.8678 16.4802 49.3548 16.6634 49.9788 16.6599C50.4108 16.6574 50.7943 16.5652 51.1293 16.3833C51.4642 16.1894 51.7265 15.8999 51.9163 15.5148C52.1061 15.1178 52.1993 14.6252 52.1959 14.0372L52.1687 9.2493L54.9767 9.23333L55.0317 18.9172L52.3678 18.9323L52.3526 16.2684L52.843 17.0396C52.5229 17.7134 52.0458 18.2261 51.4118 18.5778C50.7897 18.9173 50.1066 19.0892 49.3627 19.0934ZM63.3579 19.0138C62.5059 19.0187 61.7729 18.8428 61.1588 18.4863C60.5448 18.1298 60.0737 17.5865 59.7455 16.8563C59.4173 16.1142 59.25 15.1791 59.2436 14.0511C59.2371 12.9112 59.3997 11.9742 59.7316 11.2403C60.0754 10.5064 60.5523 9.95763 61.1622 9.59416C61.7722 9.23068 62.4851 9.04662 63.3011 9.04198C64.2131 9.03679 65.0303 9.23615 65.7526 9.64005C66.4869 10.0439 67.0662 10.6166 67.4904 11.3582C67.9266 12.0997 68.1476 12.9805 68.1534 14.0005C68.1591 15.0084 67.9481 15.8857 67.5204 16.6321C67.1046 17.3785 66.5319 17.9638 65.8023 18.3879C65.0847 18.8 64.2698 19.0086 63.3579 19.0138ZM57.6331 18.9024L57.5572 5.54659L60.3651 5.53062L60.3972 11.1645L60.2334 14.0275L60.3038 16.9072L60.3151 18.8871L57.6331 18.9024ZM62.8588 16.7126C63.3267 16.71 63.7401 16.5996 64.0989 16.3816C64.4697 16.1635 64.7619 15.8558 64.9757 15.4586C65.2013 15.0493 65.3126 14.5686 65.3095 14.0166C65.3063 13.4526 65.1895 12.9733 64.9593 12.5786C64.741 12.1838 64.4453 11.8795 64.0721 11.6656C63.7108 11.4517 63.2962 11.346 62.8282 11.3487C62.3603 11.3514 61.9409 11.4618 61.5701 11.6799C61.1993 11.898 60.9071 12.2056 60.6933 12.6029C60.4796 13.0001 60.3743 13.4807 60.3775 14.0447C60.3807 14.5967 60.4914 15.0761 60.7097 15.4828C60.928 15.8776 61.2237 16.1819 61.5969 16.3958C61.9702 16.6097 62.3908 16.7153 62.8588 16.7126ZM82.4066 8.93331C83.1745 8.92895 83.8534 9.08109 84.4432 9.38974C85.0449 9.68632 85.5155 10.1516 85.8552 10.7857C86.2067 11.4077 86.3853 12.2107 86.3909 13.1947L86.4224 18.7386L83.6144 18.7546L83.5854 13.6427C83.5809 12.8627 83.4157 12.2876 83.0895 11.9175C82.7634 11.5473 82.3064 11.3639 81.7184 11.3673C81.3104 11.3696 80.945 11.4677 80.622 11.6615C80.2991 11.8433 80.0487 12.1208 79.8708 12.4938C79.6929 12.8668 79.6056 13.3413 79.6089 13.9173L79.6365 18.7772L76.8285 18.7932L76.7995 13.6813C76.795 12.9013 76.6298 12.3262 76.3037 11.9561C75.9895 11.5859 75.5385 11.4024 74.9505 11.4058C74.5425 11.4081 74.1771 11.5062 73.8542 11.7C73.5312 11.8818 73.2808 12.1593 73.1029 12.5323C72.925 12.9053 72.8377 13.3798 72.841 13.9558L72.8686 18.8157L70.0607 18.8317L70.0056 9.14785L72.6875 9.13259L72.7026 11.7786L72.1942 11.0074C72.5264 10.3455 72.9976 9.84484 73.6077 9.50537C74.2297 9.15382 74.9367 8.9758 75.7287 8.9713C76.6167 8.96625 77.3919 9.18984 78.0545 9.64208C78.729 10.0822 79.1769 10.7637 79.3982 11.6865L78.4067 11.4221C78.7263 10.6643 79.2389 10.0613 79.9444 9.61333C80.6619 9.16524 81.4826 8.93857 82.4066 8.93331ZM88.9393 18.7243L88.8842 9.04047L91.6921 9.0245L91.7472 18.7083L88.9393 18.7243ZM90.2805 7.68251C89.7645 7.68544 89.3436 7.53783 89.0179 7.23968C88.6922 6.94153 88.5281 6.57046 88.5256 6.12646C88.5231 5.68247 88.683 5.30956 89.0052 5.00772C89.3275 4.70588 89.7467 4.55349 90.2627 4.55056C90.7787 4.54762 91.1995 4.68923 91.5251 4.97539C91.8507 5.24954 92.0147 5.60861 92.0172 6.0526C92.0199 6.5206 91.8601 6.91151 91.5379 7.22535C91.2276 7.52712 90.8085 7.67951 90.2805 7.68251ZM98.314 18.815C97.174 18.8215 96.2844 18.5385 95.6451 17.9662C95.0058 17.3818 94.6828 16.5136 94.6763 15.3616L94.628 6.86577L97.4359 6.8498L97.484 15.3097C97.4864 15.7177 97.5962 16.035 97.8135 16.2618C98.0307 16.4766 98.3253 16.5829 98.6973 16.5808C99.1413 16.5783 99.5186 16.4561 99.8292 16.2143L100.596 18.19C100.31 18.3956 99.9625 18.5536 99.5552 18.6639C99.1597 18.7622 98.746 18.8125 98.314 18.815ZM93.1597 11.3922L93.1474 9.23223L99.8613 9.19404L99.8736 11.354L93.1597 11.3922Z" fill="white"/>
</svg>
