<svg width="234" height="70" viewBox="0 0 234 70" fill="none" xmlns="http://www.w3.org/2000/svg">
<g filter="url(#filter0_d_1401_2008)">
<rect x="5.99921" y="3.5708" width="221" height="56" rx="4" transform="rotate(-0.325884 5.99921 3.5708)" fill="#0C7D9F"/>
<path d="M68.2187 40.2179L89.1572 31.0987L68.1163 22.2182L68.1461 29.2181L83.1573 31.1328L68.1689 33.2181L68.2187 40.2179Z" fill="white"/>
<path d="M104.137 37.2293C103.129 37.235 102.162 37.1085 101.237 36.8498C100.311 36.579 99.565 36.2293 98.9985 35.8005L99.976 33.5989C100.518 33.9798 101.156 34.2942 101.889 34.542C102.635 34.7778 103.385 34.8935 104.141 34.8892C104.717 34.8859 105.179 34.8293 105.526 34.7193C105.886 34.5973 106.149 34.4338 106.316 34.2288C106.483 34.0239 106.565 33.7894 106.564 33.5254C106.562 33.1894 106.428 32.9262 106.163 32.7357C105.898 32.5332 105.549 32.3732 105.116 32.2556C104.684 32.1261 104.203 32.0088 103.674 31.9038C103.158 31.7868 102.635 31.6457 102.106 31.4807C101.589 31.3157 101.114 31.1024 100.68 30.8408C100.247 30.5793 99.8909 30.2333 99.6124 29.8029C99.346 29.3724 99.2108 28.8212 99.207 28.1492C99.2029 27.4292 99.3912 26.7741 99.7718 26.1839C100.164 25.5817 100.75 25.1043 101.528 24.7519C102.318 24.3874 103.307 24.2018 104.495 24.195C105.287 24.1905 106.067 24.2821 106.836 24.4697C107.605 24.6453 108.285 24.9175 108.875 25.2861L107.987 27.5052C107.398 27.1726 106.808 26.9299 106.219 26.7773C105.63 26.6126 105.054 26.5319 104.49 26.5351C103.926 26.5383 103.464 26.6069 103.105 26.741C102.746 26.875 102.489 27.0505 102.334 27.2674C102.179 27.4722 102.103 27.7127 102.104 27.9887C102.106 28.3127 102.239 28.5759 102.505 28.7784C102.77 28.9689 103.119 29.1229 103.551 29.2405C103.984 29.358 104.459 29.4753 104.975 29.5924C105.504 29.7094 106.027 29.8444 106.544 29.9975C107.073 30.1505 107.554 30.3577 107.987 30.6193C108.421 30.8808 108.771 31.2268 109.037 31.6573C109.316 32.0877 109.457 32.6329 109.46 33.2929C109.464 34.0009 109.27 34.65 108.877 35.2403C108.485 35.8305 107.894 36.3079 107.104 36.6724C106.326 37.0368 105.337 37.2224 104.137 37.2293ZM115.363 37.0934C114.559 37.098 113.838 36.9461 113.2 36.6377C112.574 36.3293 112.086 35.858 111.734 35.224C111.382 34.578 111.204 33.757 111.198 32.761L111.167 27.2891L113.975 27.2732L114.004 32.3311C114.008 33.1351 114.179 33.7281 114.518 34.1102C114.868 34.4802 115.355 34.6634 115.979 34.6599C116.411 34.6574 116.794 34.5652 117.129 34.3833C117.464 34.1894 117.727 33.8999 117.916 33.5148C118.106 33.1178 118.199 32.6252 118.196 32.0372L118.169 27.2493L120.977 27.2333L121.032 36.9172L118.368 36.9323L118.353 34.2684L118.843 35.0396C118.523 35.7134 118.046 36.2261 117.412 36.5778C116.79 36.9173 116.107 37.0892 115.363 37.0934ZM129.358 37.0138C128.506 37.0187 127.773 36.8428 127.159 36.4863C126.545 36.1298 126.074 35.5865 125.746 34.8563C125.417 34.1142 125.25 33.1791 125.244 32.0511C125.237 30.9112 125.4 29.9742 125.732 29.2403C126.075 28.5064 126.552 27.9576 127.162 27.5942C127.772 27.2307 128.485 27.0466 129.301 27.042C130.213 27.0368 131.03 27.2361 131.753 27.64C132.487 28.0439 133.066 28.6166 133.49 29.3582C133.927 30.0997 134.148 30.9805 134.153 32.0005C134.159 33.0084 133.948 33.8857 133.52 34.6321C133.105 35.3785 132.532 35.9638 131.802 36.3879C131.085 36.8 130.27 37.0086 129.358 37.0138ZM123.633 36.9024L123.557 23.5466L126.365 23.5306L126.397 29.1645L126.233 32.0275L126.304 34.9072L126.315 36.8871L123.633 36.9024ZM128.859 34.7126C129.327 34.71 129.74 34.5996 130.099 34.3816C130.47 34.1635 130.762 33.8558 130.976 33.4586C131.201 33.0493 131.313 32.5686 131.309 32.0166C131.306 31.4526 131.19 30.9733 130.959 30.5786C130.741 30.1838 130.445 29.8795 130.072 29.6656C129.711 29.4517 129.296 29.346 128.828 29.3487C128.36 29.3514 127.941 29.4618 127.57 29.6799C127.199 29.898 126.907 30.2056 126.693 30.6029C126.48 31.0001 126.374 31.4807 126.378 32.0447C126.381 32.5967 126.491 33.0761 126.71 33.4828C126.928 33.8776 127.224 34.1819 127.597 34.3958C127.97 34.6097 128.391 34.7153 128.859 34.7126ZM148.407 26.9333C149.175 26.9289 149.853 27.0811 150.443 27.3897C151.045 27.6863 151.516 28.1516 151.855 28.7857C152.207 29.4077 152.385 30.2107 152.391 31.1947L152.422 36.7386L149.614 36.7546L149.585 31.6427C149.581 30.8627 149.416 30.2876 149.09 29.9175C148.763 29.5473 148.306 29.3639 147.718 29.3673C147.31 29.3696 146.945 29.4677 146.622 29.6615C146.299 29.8433 146.049 30.1208 145.871 30.4938C145.693 30.8668 145.606 31.3413 145.609 31.9173L145.637 36.7772L142.829 36.7932L142.799 31.6813C142.795 30.9013 142.63 30.3262 142.304 29.9561C141.99 29.5859 141.538 29.4024 140.951 29.4058C140.543 29.4081 140.177 29.5062 139.854 29.7C139.531 29.8818 139.281 30.1593 139.103 30.5323C138.925 30.9053 138.838 31.3798 138.841 31.9558L138.869 36.8157L136.061 36.8317L136.006 27.1478L138.688 27.1326L138.703 29.7786L138.194 29.0074C138.526 28.3455 138.998 27.8448 139.608 27.5054C140.23 27.1538 140.937 26.9758 141.729 26.9713C142.617 26.9662 143.392 27.1898 144.055 27.6421C144.729 28.0822 145.177 28.7637 145.398 29.6865L144.407 29.4221C144.726 28.6643 145.239 28.0613 145.944 27.6133C146.662 27.1652 147.483 26.9386 148.407 26.9333ZM154.939 36.7243L154.884 27.0405L157.692 27.0245L157.747 36.7083L154.939 36.7243ZM156.28 25.6825C155.764 25.6854 155.344 25.5378 155.018 25.2397C154.692 24.9415 154.528 24.5705 154.526 24.1265C154.523 23.6825 154.683 23.3096 155.005 23.0077C155.328 22.7059 155.747 22.5535 156.263 22.5506C156.779 22.5476 157.199 22.6892 157.525 22.9754C157.851 23.2495 158.015 23.6086 158.017 24.0526C158.02 24.5206 157.86 24.9115 157.538 25.2253C157.228 25.5271 156.808 25.6795 156.28 25.6825ZM164.314 36.815C163.174 36.8215 162.284 36.5385 161.645 35.9662C161.006 35.3818 160.683 34.5136 160.676 33.3616L160.628 24.8658L163.436 24.8498L163.484 33.3097C163.486 33.7177 163.596 34.035 163.813 34.2618C164.031 34.4766 164.325 34.5829 164.697 34.5808C165.141 34.5783 165.519 34.4561 165.829 34.2143L166.596 36.19C166.31 36.3956 165.963 36.5536 165.555 36.6639C165.16 36.7622 164.746 36.8125 164.314 36.815ZM159.16 29.3922L159.147 27.2322L165.861 27.194L165.874 29.354L159.16 29.3922Z" fill="white"/>
</g>
<defs>
<filter id="filter0_d_1401_2008" x="-0.000793457" y="0.313965" width="233.315" height="69.2559" filterUnits="userSpaceOnUse" color-interpolation-filters="sRGB">
<feFlood flood-opacity="0" result="BackgroundImageFix"/>
<feColorMatrix in="SourceAlpha" type="matrix" values="0 0 0 0 0 0 0 0 0 0 0 0 0 0 0 0 0 0 127 0" result="hardAlpha"/>
<feOffset dy="4"/>
<feGaussianBlur stdDeviation="3"/>
<feColorMatrix type="matrix" values="0 0 0 0 0 0 0 0 0 0 0 0 0 0 0 0 0 0 0.08 0"/>
<feBlend mode="normal" in2="BackgroundImageFix" result="effect1_dropShadow_1401_2008"/>
<feBlend mode="normal" in="SourceGraphic" in2="effect1_dropShadow_1401_2008" result="shape"/>
</filter>
</defs>
</svg>
